<?xml version="1.0" encoding="utf-8"?>
<!-- Generator: Adobe Illustrator 19.0.0, SVG Export Plug-In . SVG Version: 6.00 Build 0)  -->
<svg version="1.1" id="Layer_1" xmlns="http://www.w3.org/2000/svg" xmlns:xlink="http://www.w3.org/1999/xlink" x="0px" y="0px"
	 viewBox="0 0 640 480" style="enable-background:new 0 0 640 480;" xml:space="preserve">
<style type="text/css">
	.st0{fill-rule:evenodd;clip-rule:evenodd;}
</style>
<path class="st0" d="M329.1,10c0,0-103.2,77.3-165,277.5c-0.7,2.3-21.8-18-31.5-35.3c-2.2-3.8,7.7-17.1,60.4-86.8
	c0.8-1.1-92.1,9.2-147.4,63.6c-2.7,2.6,67.2,175.2,157.5,232.5c1,0.6,25.7-92.3,46.1-138c1.3-2.9,70.9,7.9,154.9-8.6
	c5.6-1.1,19,36.5,41.6,140.3c0.3,1.6,118.2-88.8,133.9-172.1c0.1-0.3-53.2,29.2-70.3,32.8C507,316.2,450.6,121,329.1,10z M387.6,233
	c-70.8,21.8-107.9-0.7-107.8-1.5c12.6-57.6,49.3-99.3,49.3-99.3C362.4,165.3,390.6,232.1,387.6,233z"/>
</svg>
